# xmcd
#
# Track frame offsets: 
#        150
#        22532
#        36649
#        51202
#        67470
#        82885
#        96081
#        115258
#        131582
#        152407
#        165148
#        171655
#
# Disc length: 2355 seconds
#
# Revision: 0
# Processed by: cddbd v1.5.2PL0 Copyright (c) Steve Scherf et al.
# Submitted via: ExactAudioCopy v0.99pb5
#
DISCID=9609310c
DTITLE=Nasty Ned - Roots 52
DYEAR=2010
DGENRE=Blues
TTITLE0=Lonely Loaded Pistol
TTITLE1=Boen With Plainfield Blues
TTITLE2=Love Me Deep
TTITLE3=Nothin' Else Can Taste That Way
TTITLE4=Can't Be Satisfied
TTITLE5=Rollin' and Tumblin'
TTITLE6=Standin' Around Cryin'
TTITLE7=Money Can't Buy You
TTITLE8=Mississippi Water
TTITLE9=In My Soul
TTITLE10=Star Spangled Banner
TTITLE11=That's All, Goodnight
EXTD=
EXTT0=
EXTT1=
EXTT2=
EXTT3=
EXTT4=
EXTT5=
EXTT6=
EXTT7=
EXTT8=
EXTT9=
EXTT10=
EXTT11=
PLAYORDER=
